<svg data-v-423bf9ae="" xmlns="http://www.w3.org/2000/svg" viewBox="0 0 34.1545487891219 60" class="font"><!----><!----><!----><g data-v-423bf9ae="" id="fd41ef8c-9684-4264-808e-e59423c2b2d9" fill="#EBF7FF" transform="matrix(4.590665418742173,0,0,4.590665418742173,-3.2593720036206193,-18.913541476694945)"><path d="M3.11 17.19L3.11 17.19L3.11 17.19Q2.41 17.19 1.95 16.85L1.95 16.85L1.95 16.85Q1.48 16.51 1.48 15.90L1.48 15.90L1.48 15.90Q1.48 14.29 4.77 13.79L4.77 13.79L4.77 13.79Q4.90 13.33 4.97 12.89L4.97 12.89L4.97 12.89Q4.33 13.29 3.61 13.29L3.61 13.29L3.61 13.29Q2.31 13.29 1.51 12.34L1.51 12.34L1.51 12.34Q0.71 11.40 0.71 9.88L0.71 9.88L0.71 9.88Q0.71 8.37 1.30 7.08L1.30 7.08L1.30 7.08Q1.89 5.80 2.99 4.96L2.99 4.96L2.99 4.96Q4.09 4.12 5.33 4.12L5.33 4.12L5.33 4.12Q6.57 4.12 7.36 4.73L7.36 4.73L7.36 4.73Q8.15 5.33 8.15 6.27L8.15 6.27L8.15 6.27Q8.15 6.83 7.95 7.18L7.95 7.18L7.95 7.18Q7.84 7.20 7.64 7.20L7.64 7.20L7.64 7.20Q6.57 7.20 6.02 6.85L6.02 6.85L6.03 5.33L6.03 5.33Q5.70 5.04 5.15 5.04L5.15 5.04L5.15 5.04Q4.30 5.04 3.64 6.35L3.64 6.35L3.64 6.35Q2.98 7.66 2.98 9.53L2.98 9.53L2.98 9.53Q2.98 10.78 3.39 11.37L3.39 11.37L3.39 11.37Q3.79 11.96 4.35 11.96L4.35 11.96L4.35 11.96Q5.19 11.96 5.87 11.12L5.87 11.12L5.87 11.12Q6.54 10.28 6.83 9.11L6.83 9.11L7.59 9.24L7.59 9.24Q7.06 13.24 5.98 15.22L5.98 15.22L5.98 15.22Q4.90 17.19 3.11 17.19ZM2.39 15.86L2.39 15.86L2.39 15.86Q2.39 16.25 3.05 16.25L3.05 16.25L3.05 16.25Q3.39 16.25 3.85 15.84L3.85 15.84L3.85 15.84Q4.31 15.43 4.55 14.77L4.55 14.77L4.55 14.77Q3.74 14.84 3.07 15.14L3.07 15.14L3.07 15.14Q2.39 15.44 2.39 15.86Z"></path></g><!----><!----></svg>